<svg width="36" height="16" viewBox="0 0 36 16" fill="none" xmlns="http://www.w3.org/2000/svg">
<g id="Battery">
<g id="Group">
<path id="Vector" d="M33.9648 5.54276H32.8769V4.59211C32.8769 4.06704 32.3899 3.64145 31.7891 3.64145H30.7012V2.69079C30.7012 1.64073 29.7271 0.789474 28.5255 0.789474H2.41687C1.21526 0.789474 0.24115 1.64073 0.24115 2.69079V14.0987C0.24115 15.1487 1.21526 16 2.41687 16H28.5255C29.7271 16 30.7012 15.1487 30.7012 14.0987V13.148H31.7891C32.3899 13.148 32.8769 12.7224 32.8769 12.1974V11.2467H33.9648C34.5656 11.2467 35.0527 10.8211 35.0527 10.2961V6.49342C35.0527 5.96836 34.5656 5.54276 33.9648 5.54276ZM28.5255 4.59211V14.0987H25.2619V2.69079H28.5255V4.59211Z" fill="white"/>
</g>
</g>
</svg>
