<svg width="50" height="50" viewBox="0 0 50 50" fill="none" xmlns="http://www.w3.org/2000/svg">
<path d="M42.1875 23.4375H11.0219L22.9531 12.0688C23.5773 11.4734 23.6016 10.4844 23.0063 9.85938C22.4109 9.23594 21.4227 9.21016 20.7969 9.80626L7.16797 22.7945C6.57578 23.3867 6.25 24.1703 6.25 25C6.25 25.8297 6.57578 26.6117 7.19531 27.2328L20.7969 40.1938C21.0992 40.482 21.4875 40.625 21.875 40.625C22.2875 40.625 22.6992 40.4625 23.0063 40.1406C23.6016 39.5156 23.5773 38.5273 22.9531 37.9313L10.968 26.5625H42.1875C43.05 26.5625 43.75 25.8625 43.75 25C43.75 24.1375 43.05 23.4375 42.1875 23.4375Z" fill="white"/>
</svg>
