<svg width="136" height="238" viewBox="0 0 136 238" fill="none" xmlns="http://www.w3.org/2000/svg">
<path d="M6.52062 13.0411C2.91157 13.0411 0 10.0993 0 6.52062C0 2.91157 2.9419 0 6.52062 0C10.0993 0 13.041 2.9419 13.041 6.52062C13.041 10.1297 10.1297 13.0411 6.52062 13.0411Z" fill="#0B315E"/>
<path d="M6.52062 69.0572C2.91157 69.0572 0 66.1153 0 62.5365C0 58.9275 2.9419 56.016 6.52062 56.016C10.0993 56.016 13.041 58.9578 13.041 62.5365C13.041 66.1153 10.1297 69.0572 6.52062 69.0572Z" fill="#0B315E"/>
<path d="M67.935 69.0572C64.326 69.0572 61.4144 66.1153 61.4144 62.5365C61.4144 58.9275 64.3563 56.016 67.935 56.016C71.5441 56.016 74.4555 58.9578 74.4555 62.5365C74.4858 66.1153 71.5441 69.0572 67.935 69.0572Z" fill="#0B315E"/>
<path d="M6.52062 125.073C2.91157 125.073 0 122.131 0 118.553C0 114.944 2.9419 112.032 6.52062 112.032C10.0993 112.032 13.041 114.974 13.041 118.553C13.041 122.131 10.1297 125.073 6.52062 125.073Z" fill="#0B315E"/>
<path d="M67.935 125.073C64.326 125.073 61.4144 122.131 61.4144 118.553C61.4144 114.944 64.3563 112.032 67.935 112.032C71.5441 112.032 74.4555 114.974 74.4555 118.553C74.4858 122.131 71.5441 125.073 67.935 125.073Z" fill="#0B315E"/>
<path d="M129.349 125.073C125.74 125.073 122.829 122.131 122.829 118.553C122.829 114.944 125.771 112.032 129.349 112.032C132.959 112.032 135.87 114.974 135.87 118.553C135.9 122.131 132.959 125.073 129.349 125.073Z" fill="#0B315E"/>
<path d="M6.52062 181.059C2.91157 181.059 0 178.117 0 174.538C0 170.929 2.9419 168.018 6.52062 168.018C10.0993 168.018 13.041 170.96 13.041 174.538C13.041 178.147 10.1297 181.059 6.52062 181.059Z" fill="#0B315E"/>
<path d="M67.935 181.059C64.326 181.059 61.4144 178.117 61.4144 174.538C61.4144 170.929 64.3563 168.018 67.935 168.018C71.5441 168.018 74.4555 170.96 74.4555 174.538C74.4858 178.147 71.5441 181.059 67.935 181.059Z" fill="#0B315E"/>
<path d="M6.52062 237.075C10.1218 237.075 13.041 234.156 13.041 230.554C13.041 226.953 10.1218 224.034 6.52062 224.034C2.91942 224.034 0 226.953 0 230.554C0 234.156 2.91942 237.075 6.52062 237.075Z" fill="#0B315E"/>
</svg>
