<svg width="643" height="525" viewBox="0 0 643 525" fill="none" xmlns="http://www.w3.org/2000/svg">
<path d="M422.425 7.79674C378.838 7.79674 343.51 43.1252 343.51 86.712C343.51 130.299 378.838 165.627 422.425 165.627C466.012 165.627 501.34 130.299 501.34 86.712C501.34 43.1252 466.012 7.79674 422.425 7.79674ZM422.425 134.64C395.954 134.64 374.497 113.183 374.497 86.712C374.497 60.2406 395.954 38.784 422.425 38.784C448.897 38.784 470.353 60.2406 470.353 86.712C470.353 113.183 448.897 134.64 422.425 134.64Z" fill="#FFC200"/>
<path d="M447.974 506.774C396.029 506.774 347.19 486.54 310.452 449.815L312.211 448.056C387.072 522.917 508.863 522.917 583.724 448.056C619.988 411.792 639.96 363.577 639.96 312.305C639.96 261.034 619.988 212.807 583.724 176.555L585.483 174.796C622.221 211.534 642.442 260.373 642.442 312.318C642.442 364.263 622.208 413.101 585.483 449.84C548.757 486.553 499.918 506.774 447.974 506.774Z" fill="#0B315E"/>
<path d="M447.974 493.314C401.592 493.314 355.224 475.662 319.92 440.359L321.679 438.6C391.313 508.234 504.621 508.234 574.268 438.6C643.902 368.966 643.902 255.645 574.268 186.011L576.027 184.252C646.634 254.859 646.634 369.752 576.027 440.371C540.723 475.662 494.342 493.314 447.974 493.314Z" fill="#0B315E"/>
<path d="M447.974 480.016C403.177 480.016 361.062 462.564 329.376 430.89L331.135 429.132C362.347 460.343 403.838 477.521 447.961 477.521C492.097 477.521 533.588 460.331 564.787 429.132C595.999 397.92 613.177 356.429 613.177 312.305C613.177 268.17 595.986 226.679 564.787 195.479L566.546 193.72C598.219 225.394 615.672 267.521 615.672 312.318C615.672 357.115 598.219 399.23 566.546 430.915C534.885 462.564 492.77 480.016 447.974 480.016Z" fill="#0B315E"/>
<path d="M447.974 466.556C408.454 466.556 368.933 451.511 338.844 421.422L340.603 419.663C399.808 478.868 496.139 478.868 555.344 419.663C614.549 360.458 614.549 264.128 555.344 204.923L557.103 203.164C617.281 263.342 617.281 361.256 557.103 421.422C527.014 451.511 487.494 466.556 447.974 466.556Z" fill="#0B315E"/>
<path d="M447.974 453.183C411.884 453.183 375.782 439.448 348.3 411.966L350.059 410.207C404.05 464.198 491.885 464.198 545.863 410.207C599.854 356.217 599.854 268.382 545.863 214.404L547.622 212.645C602.573 267.596 602.573 357.027 547.622 411.979C520.165 439.448 484.063 453.183 447.974 453.183Z" fill="#0B315E"/>
<path d="M447.974 439.81C415.302 439.81 382.631 427.373 357.769 402.51L359.527 400.751C408.291 449.515 487.643 449.515 536.407 400.751C560.034 377.124 573.045 345.713 573.045 312.305C573.045 278.898 560.034 247.487 536.407 223.859L538.166 222.1C562.267 246.189 575.528 278.237 575.528 312.305C575.528 346.374 562.255 378.422 538.166 402.51C513.304 427.373 480.645 439.81 447.974 439.81Z" fill="#0B315E"/>
<path d="M447.974 426.437C418.733 426.437 389.492 415.309 367.224 393.042L368.983 391.283C412.533 434.832 483.389 434.832 526.939 391.283C570.488 347.734 570.488 276.877 526.939 233.328L528.698 231.569C573.22 276.091 573.22 348.532 528.698 393.055C506.455 415.297 477.214 426.437 447.974 426.437Z" fill="#0B315E"/>
<path d="M525.567 165.852L518.369 173.037V165.852H525.567Z" fill="#0B315E"/>
<path d="M538.89 165.852L518.369 186.373V179.187L531.704 165.852H538.89Z" fill="#0B315E"/>
<path d="M578.784 165.852L518.369 226.255V219.181L571.698 165.852H578.784Z" fill="#0B315E"/>
<path d="M565.561 165.852L518.369 213.031V205.846L558.375 165.852H565.561Z" fill="#0B315E"/>
<path d="M552.225 165.852L518.369 199.708V192.51L545.04 165.852H552.225Z" fill="#0B315E"/>
<path d="M309.017 525C446.844 525 558.575 413.269 558.575 275.443C558.575 137.616 446.844 25.8851 309.017 25.8851C171.19 25.8851 59.4598 137.616 59.4598 275.443C59.4598 413.269 171.19 525 309.017 525Z" fill="url(#paint0_radial)"/>
<path d="M251.895 487.987C386.649 487.987 495.889 378.748 495.889 243.994C495.889 109.24 386.649 0 251.895 0C117.141 0 7.90164 109.24 7.90164 243.994C7.90164 378.748 117.141 487.987 251.895 487.987Z" fill="#F9F5EF"/>
<path d="M255.513 57.2716C257.235 57.2716 258.632 55.8753 258.632 54.1529C258.632 52.4305 257.235 51.0342 255.513 51.0342C253.791 51.0342 252.394 52.4305 252.394 54.1529C252.394 55.8753 253.791 57.2716 255.513 57.2716Z" fill="#114A82"/>
<path d="M288.11 59.9786C286.425 59.9786 285.066 58.6189 285.066 56.9348C285.066 55.2507 286.425 53.891 288.11 53.891C289.794 53.891 291.153 55.2507 291.153 56.9348C291.153 58.6189 289.794 59.9786 288.11 59.9786Z" fill="#114A82"/>
<path d="M319.746 68.2619C321.385 68.2619 322.715 66.9326 322.715 65.2929C322.715 63.6531 321.385 62.3239 319.746 62.3239C318.106 62.3239 316.777 63.6531 316.777 65.2929C316.777 66.9326 318.106 68.2619 319.746 68.2619Z" fill="#114A82"/>
<path d="M349.448 81.8843C347.851 81.8843 346.554 80.5869 346.554 78.9901C346.554 77.3934 347.851 76.096 349.448 76.096C351.045 76.096 352.342 77.3934 352.342 78.9901C352.355 80.5869 351.057 81.8843 349.448 81.8843Z" fill="#114A82"/>
<path d="M376.368 100.397C374.809 100.397 373.549 99.1369 373.549 97.5775C373.549 96.0182 374.809 94.7582 376.368 94.7582C377.928 94.7582 379.188 96.0182 379.188 97.5775C379.188 99.1369 377.928 100.397 376.368 100.397Z" fill="#114A82"/>
<path d="M399.709 123.251C401.231 123.251 402.466 122.016 402.466 120.494C402.466 118.971 401.231 117.737 399.709 117.737C398.186 117.737 396.952 118.971 396.952 120.494C396.952 122.016 398.186 123.251 399.709 123.251Z" fill="#114A82"/>
<path d="M418.783 149.747C417.298 149.747 416.101 148.549 416.101 147.065C416.101 145.58 417.298 144.383 418.783 144.383C420.267 144.383 421.465 145.58 421.465 147.065C421.465 148.549 420.267 149.747 418.783 149.747Z" fill="#114A82"/>
<path d="M435.609 176.974C435.838 175.553 434.872 174.214 433.45 173.985C432.029 173.756 430.691 174.722 430.461 176.144C430.232 177.565 431.198 178.903 432.62 179.133C434.041 179.362 435.379 178.396 435.609 176.974Z" fill="#114A82"/>
<path d="M441.948 210.524C440.551 210.524 439.416 209.389 439.416 207.992C439.416 206.594 440.551 205.459 441.948 205.459C443.345 205.459 444.481 206.594 444.481 207.992C444.481 209.389 443.345 210.524 441.948 210.524Z" fill="#114A82"/>
<path d="M445.329 242.983C443.969 242.983 442.871 241.885 442.871 240.526C442.871 239.166 443.969 238.068 445.329 238.068C446.689 238.068 447.786 239.166 447.786 240.526C447.786 241.885 446.689 242.983 445.329 242.983Z" fill="#114A82"/>
<path d="M443.133 275.555C441.811 275.555 440.751 274.482 440.751 273.172C440.751 271.85 441.823 270.789 443.133 270.789C444.456 270.789 445.516 271.862 445.516 273.172C445.516 274.482 444.443 275.555 443.133 275.555Z" fill="#114A82"/>
<path d="M435.362 307.253C434.089 307.253 433.054 306.218 433.054 304.945C433.054 303.673 434.089 302.637 435.362 302.637C436.634 302.637 437.669 303.673 437.669 304.945C437.669 306.218 436.634 307.253 435.362 307.253Z" fill="#114A82"/>
<path d="M422.213 337.143C420.978 337.143 419.98 336.145 419.98 334.91C419.98 333.675 420.978 332.677 422.213 332.677C423.448 332.677 424.446 333.675 424.446 334.91C424.446 336.132 423.448 337.143 422.213 337.143Z" fill="#114A82"/>
<path d="M404.112 364.313C402.915 364.313 401.954 363.34 401.954 362.155C401.954 360.957 402.927 359.996 404.112 359.996C405.31 359.996 406.27 360.969 406.27 362.155C406.27 363.34 405.31 364.313 404.112 364.313Z" fill="#114A82"/>
<path d="M381.62 387.99C380.46 387.99 379.525 387.054 379.525 385.894C379.525 384.734 380.46 383.798 381.62 383.798C382.78 383.798 383.716 384.734 383.716 385.894C383.704 387.054 382.768 387.99 381.62 387.99Z" fill="#114A82"/>
<path d="M355.398 407.475C354.288 407.475 353.377 406.577 353.377 405.454C353.377 404.332 354.276 403.434 355.398 403.434C356.521 403.434 357.419 404.332 357.419 405.454C357.419 406.577 356.509 407.475 355.398 407.475Z" fill="#114A82"/>
<path d="M326.207 422.171C325.135 422.171 324.261 421.297 324.261 420.225C324.261 419.152 325.135 418.279 326.207 418.279C327.28 418.279 328.154 419.152 328.154 420.225C328.154 421.297 327.28 422.171 326.207 422.171Z" fill="#114A82"/>
<path d="M294.908 431.601C293.873 431.601 293.037 430.766 293.037 429.73C293.037 428.695 293.873 427.859 294.908 427.859C295.944 427.859 296.78 428.695 296.78 429.73C296.78 430.766 295.944 431.601 294.908 431.601Z" fill="#114A82"/>
<path d="M262.437 435.506C261.439 435.506 260.64 434.708 260.64 433.71C260.64 432.712 261.439 431.913 262.437 431.913C263.434 431.913 264.233 432.712 264.233 433.71C264.233 434.708 263.434 435.506 262.437 435.506Z" fill="#114A82"/>
<path d="M229.765 433.822C228.817 433.822 228.044 433.049 228.044 432.101C228.044 431.152 228.817 430.379 229.765 430.379C230.713 430.379 231.487 431.152 231.487 432.101C231.487 433.049 230.713 433.822 229.765 433.822Z" fill="#114A82"/>
<path d="M197.855 426.562C196.944 426.562 196.208 425.826 196.208 424.915C196.208 424.004 196.944 423.268 197.855 423.268C198.765 423.268 199.501 424.004 199.501 424.915C199.501 425.826 198.765 426.562 197.855 426.562Z" fill="#114A82"/>
<path d="M167.653 413.887C166.78 413.887 166.081 413.176 166.081 412.316C166.081 411.442 166.793 410.744 167.653 410.744C168.527 410.744 169.225 411.455 169.225 412.316C169.238 413.189 168.527 413.887 167.653 413.887Z" fill="#114A82"/>
<path d="M140.084 396.211C139.248 396.211 138.587 395.537 138.587 394.714C138.587 393.89 139.261 393.217 140.084 393.217C140.907 393.217 141.581 393.89 141.581 394.714C141.581 395.537 140.92 396.211 140.084 396.211Z" fill="#114A82"/>
<path d="M115.921 374.08C116.713 374.08 117.355 373.438 117.355 372.646C117.355 371.854 116.713 371.211 115.921 371.211C115.128 371.211 114.486 371.854 114.486 372.646C114.486 373.438 115.128 374.08 115.921 374.08Z" fill="#114A82"/>
<path d="M255.513 71.8795C257.235 71.8795 258.632 70.4832 258.632 68.7608C258.632 67.0384 257.235 65.6422 255.513 65.6422C253.791 65.6422 252.394 67.0384 252.394 68.7608C252.394 70.4832 253.791 71.8795 255.513 71.8795Z" fill="#114A82"/>
<path d="M287.723 74.7237C286.064 74.7237 284.716 73.3765 284.716 71.7173C284.716 70.0582 286.064 68.7109 287.723 68.7109C289.382 68.7109 290.729 70.0582 290.729 71.7173C290.729 73.3765 289.382 74.7237 287.723 74.7237Z" fill="#114A82"/>
<path d="M318.835 83.4311C320.426 83.4311 321.717 82.141 321.717 80.5495C321.717 78.958 320.426 77.6678 318.835 77.6678C317.243 77.6678 315.953 78.958 315.953 80.5495C315.953 82.141 317.243 83.4311 318.835 83.4311Z" fill="#114A82"/>
<path d="M347.776 97.7521C346.254 97.7521 345.007 96.5171 345.007 94.9827C345.007 93.4608 346.242 92.2133 347.776 92.2133C349.298 92.2133 350.546 93.4484 350.546 94.9827C350.533 96.5171 349.298 97.7521 347.776 97.7521Z" fill="#114A82"/>
<path d="M373.562 117.138C372.102 117.138 370.917 115.953 370.917 114.493C370.917 113.034 372.102 111.849 373.562 111.849C375.021 111.849 376.206 113.034 376.206 114.493C376.206 115.953 375.034 117.138 373.562 117.138Z" fill="#114A82"/>
<path d="M395.355 140.915C393.958 140.915 392.823 139.78 392.823 138.382C392.823 136.985 393.958 135.85 395.355 135.85C396.752 135.85 397.887 136.985 397.887 138.382C397.887 139.78 396.752 140.915 395.355 140.915Z" fill="#114A82"/>
<path d="M412.408 168.284C411.073 168.284 410 167.199 410 165.877C410 164.542 411.086 163.469 412.408 163.469C413.73 163.469 414.816 164.554 414.816 165.877C414.816 167.199 413.743 168.284 412.408 168.284Z" fill="#114A82"/>
<path d="M424.097 198.311C425.365 198.311 426.392 197.283 426.392 196.016C426.392 194.748 425.365 193.72 424.097 193.72C422.829 193.72 421.801 194.748 421.801 196.016C421.801 197.283 422.829 198.311 424.097 198.311Z" fill="#114A82"/>
<path d="M430.01 229.997C428.812 229.997 427.839 229.024 427.839 227.826C427.839 226.629 428.812 225.656 430.01 225.656C431.207 225.656 432.18 226.629 432.18 227.826C432.18 229.024 431.207 229.997 430.01 229.997Z" fill="#114A82"/>
<path d="M430.01 262.219C428.875 262.219 427.952 261.296 427.952 260.161C427.952 259.026 428.875 258.103 430.01 258.103C431.145 258.103 432.068 259.026 432.068 260.161C432.068 261.296 431.145 262.219 430.01 262.219Z" fill="#114A82"/>
<path d="M424.097 293.893C423.024 293.893 422.163 293.019 422.163 291.959C422.163 290.886 423.036 290.026 424.097 290.026C425.17 290.026 426.03 290.899 426.03 291.959C426.03 293.019 425.17 293.893 424.097 293.893Z" fill="#114A82"/>
<path d="M412.408 323.932C411.398 323.932 410.587 323.121 410.587 322.111C410.587 321.1 411.398 320.289 412.408 320.289C413.418 320.289 414.229 321.1 414.229 322.111C414.229 323.109 413.418 323.932 412.408 323.932Z" fill="#114A82"/>
<path d="M395.367 351.289C394.432 351.289 393.671 350.528 393.671 349.592C393.671 348.657 394.432 347.896 395.367 347.896C396.303 347.896 397.064 348.657 397.064 349.592C397.064 350.528 396.303 351.289 395.367 351.289Z" fill="#114A82"/>
<path d="M373.574 375.066C372.701 375.066 371.99 374.355 371.99 373.482C371.99 372.608 372.701 371.897 373.574 371.897C374.447 371.897 375.158 372.608 375.158 373.482C375.146 374.355 374.447 375.066 373.574 375.066Z" fill="#114A82"/>
<path d="M347.776 394.452C346.965 394.452 346.317 393.791 346.317 392.992C346.317 392.194 346.978 391.533 347.776 391.533C348.587 391.533 349.236 392.194 349.236 392.992C349.236 393.791 348.587 394.452 347.776 394.452Z" fill="#114A82"/>
<path d="M318.835 408.773C318.086 408.773 317.488 408.174 317.488 407.425C317.488 406.677 318.086 406.078 318.835 406.078C319.583 406.078 320.182 406.677 320.182 407.425C320.182 408.174 319.583 408.773 318.835 408.773Z" fill="#114A82"/>
<path d="M287.723 417.492C288.405 417.492 288.958 416.94 288.958 416.258C288.958 415.575 288.405 415.023 287.723 415.023C287.041 415.023 286.488 415.575 286.488 416.258C286.488 416.94 287.041 417.492 287.723 417.492Z" fill="#114A82"/>
<path d="M255.513 420.324C256.126 420.324 256.623 419.827 256.623 419.214C256.623 418.601 256.126 418.104 255.513 418.104C254.9 418.104 254.403 418.601 254.403 419.214C254.403 419.827 254.9 420.324 255.513 420.324Z" fill="#114A82"/>
<path d="M255.513 88.7204C257.235 88.7204 258.632 87.3242 258.632 85.6018C258.632 83.8793 257.235 82.4831 255.513 82.4831C253.791 82.4831 252.394 83.8793 252.394 85.6018C252.394 87.3242 253.791 88.7204 255.513 88.7204Z" fill="#114A82"/>
<path d="M286.425 91.4524C284.854 91.4524 283.594 90.18 283.594 88.6206C283.594 87.0488 284.866 85.7888 286.425 85.7888C287.985 85.7888 289.257 87.0613 289.257 88.6206C289.27 90.18 287.997 91.4524 286.425 91.4524Z" fill="#114A82"/>
<path d="M316.153 100.172C314.743 100.172 313.595 99.0246 313.595 97.6149C313.595 96.2053 314.743 95.0576 316.153 95.0576C317.562 95.0576 318.71 96.2053 318.71 97.6149C318.71 99.0246 317.562 100.172 316.153 100.172Z" fill="#114A82"/>
<path d="M343.522 114.543C344.776 114.543 345.793 113.527 345.793 112.273C345.793 111.019 344.776 110.002 343.522 110.002C342.269 110.002 341.252 111.019 341.252 112.273C341.252 113.527 342.269 114.543 343.522 114.543Z" fill="#114A82"/>
<path d="M367.524 133.979C366.426 133.979 365.528 133.081 365.528 131.983C365.528 130.885 366.426 129.987 367.524 129.987C368.622 129.987 369.52 130.885 369.52 131.983C369.52 133.081 368.622 133.979 367.524 133.979Z" fill="#114A82"/>
<path d="M387.234 157.693C386.286 157.693 385.525 156.932 385.525 155.984C385.525 155.036 386.286 154.275 387.234 154.275C388.182 154.275 388.943 155.036 388.943 155.984C388.943 156.932 388.182 157.693 387.234 157.693Z" fill="#114A82"/>
<path d="M401.892 184.789C401.106 184.789 400.457 184.152 400.457 183.354C400.457 182.568 401.093 181.919 401.892 181.919C402.678 181.919 403.326 182.556 403.326 183.354C403.326 184.152 402.678 184.789 401.892 184.789Z" fill="#114A82"/>
<path d="M410.899 214.229C410.262 214.229 409.751 213.717 409.751 213.081C409.751 212.445 410.262 211.934 410.899 211.934C411.535 211.934 412.046 212.445 412.046 213.081C412.046 213.717 411.535 214.229 410.899 214.229Z" fill="#114A82"/>
<path d="M413.917 244.854C414.393 244.854 414.778 244.469 414.778 243.994C414.778 243.518 414.393 243.133 413.917 243.133C413.442 243.133 413.057 243.518 413.057 243.994C413.057 244.469 413.442 244.854 413.917 244.854Z" fill="#114A82"/>
<path d="M113.139 320.302C41.9328 320.302 -16 262.369 -16 191.151C-16 119.932 41.9328 62.012 113.139 62.012C184.345 62.012 242.29 119.945 242.29 191.151C242.29 262.357 184.357 320.302 113.139 320.302ZM113.139 64.5069C43.305 64.5069 -13.505 121.317 -13.505 191.151C-13.505 260.984 43.305 317.807 113.139 317.807C182.972 317.807 239.795 260.997 239.795 191.151C239.795 121.317 182.972 64.5069 113.139 64.5069Z" fill="#0B315E"/>
<path d="M113.139 299.182C53.5717 299.182 5.11978 250.718 5.11978 191.163C5.11978 131.596 53.5842 83.1442 113.139 83.1442C172.706 83.1442 221.158 131.609 221.158 191.163C221.17 250.718 172.706 299.182 113.139 299.182ZM113.139 91.677C58.2872 91.677 13.665 136.299 13.665 191.151C13.665 246.002 58.2872 290.624 113.139 290.624C167.99 290.624 212.612 246.002 212.612 191.151C212.612 136.299 167.99 91.677 113.139 91.677Z" fill="#FF9D00"/>
<path d="M113.139 278.05C65.2232 278.05 26.2395 239.066 26.2395 191.151C26.2395 143.235 65.2232 104.252 113.139 104.252C161.054 104.252 200.038 143.235 200.038 191.151C200.038 239.066 161.054 278.05 113.139 278.05ZM113.139 106.746C66.5954 106.746 28.7345 144.607 28.7345 191.151C28.7345 237.694 66.5954 275.555 113.139 275.555C159.682 275.555 197.543 237.694 197.543 191.151C197.543 144.607 159.682 106.746 113.139 106.746Z" fill="#0B315E"/>
<path d="M113.139 256.93C76.8746 256.93 47.3593 227.427 47.3593 191.151C47.3593 154.874 76.8621 125.371 113.139 125.371C149.415 125.371 178.918 154.874 178.918 191.151C178.918 227.427 149.415 256.93 113.139 256.93ZM113.139 127.879C78.2468 127.879 49.8542 156.271 49.8542 191.163C49.8542 226.055 78.2468 254.448 113.139 254.448C148.031 254.448 176.423 226.055 176.423 191.163C176.423 156.271 148.043 127.879 113.139 127.879Z" fill="#0B315E"/>
<path d="M113.139 235.81C88.5135 235.81 68.4915 215.776 68.4915 191.151C68.4915 166.526 88.526 146.504 113.139 146.504C137.764 146.504 157.798 166.538 157.798 191.151C157.798 215.776 137.764 235.81 113.139 235.81ZM113.139 148.998C89.8982 148.998 70.9865 167.91 70.9865 191.151C70.9865 214.391 89.8982 233.315 113.139 233.315C136.379 233.315 155.303 214.404 155.303 191.151C155.303 167.898 136.392 148.998 113.139 148.998Z" fill="#0B315E"/>
<path d="M113.139 214.691C100.165 214.691 89.6113 204.137 89.6113 191.163C89.6113 178.189 100.165 167.636 113.139 167.636C126.112 167.636 136.666 178.189 136.666 191.163C136.679 204.124 126.112 214.691 113.139 214.691ZM113.139 170.118C101.537 170.118 92.1062 179.549 92.1062 191.151C92.1062 202.752 101.537 212.183 113.139 212.183C124.74 212.183 134.171 202.752 134.171 191.151C134.184 179.562 124.74 170.118 113.139 170.118Z" fill="#0B315E"/>
<path d="M286.662 431.826C374.402 431.826 445.528 360.699 445.528 272.96C445.528 185.221 374.402 114.094 286.662 114.094C198.923 114.094 127.797 185.221 127.797 272.96C127.797 360.699 198.923 431.826 286.662 431.826Z" fill="url(#paint1_radial)"/>
<path d="M251.895 392.443C333.882 392.443 400.345 325.98 400.345 243.994C400.345 162.007 333.882 95.5441 251.895 95.5441C169.909 95.5441 103.446 162.007 103.446 243.994C103.446 325.98 169.909 392.443 251.895 392.443Z" fill="#213E9D"/>
<path d="M234.792 314.663L243.512 305.943L240.942 303.374L229.665 314.663L240.942 325.953L243.512 323.383L234.792 314.663Z" fill="white"/>
<path d="M250.012 314.663L258.731 305.943L256.162 303.374L244.872 314.663L256.162 325.953L258.731 323.383L250.012 314.663Z" fill="white"/>
<path d="M265.418 314.663L274.138 305.943L271.568 303.374L260.278 314.663L271.568 325.953L274.138 323.383L265.418 314.663Z" fill="white"/>
<path d="M268.998 187.683L260.278 196.403L262.848 198.96L274.138 187.683L262.848 176.393L260.278 178.963L268.998 187.683Z" fill="white"/>
<path d="M253.779 187.683L245.059 196.403L247.629 198.96L258.919 187.683L247.629 176.393L245.059 178.963L253.779 187.683Z" fill="white"/>
<path d="M238.385 187.683L229.665 196.403L232.223 198.96L243.512 187.683L232.223 176.393L229.665 178.963L238.385 187.683Z" fill="white"/>
<path d="M497.239 364.273C526.883 334.629 526.883 286.567 497.239 256.923C467.595 227.279 419.533 227.279 389.889 256.923C360.245 286.567 360.245 334.629 389.889 364.273C419.533 393.917 467.595 393.917 497.239 364.273Z" fill="#FD6A11"/>
<path d="M455.159 338.184C470.384 331.769 477.525 314.227 471.11 299.002C464.694 283.778 447.152 276.637 431.928 283.052C416.703 289.467 409.562 307.01 415.977 322.234C422.393 337.458 439.935 344.6 455.159 338.184Z" fill="#213E9D"/>
<defs>
<radialGradient id="paint0_radial" cx="0" cy="0" r="1" gradientUnits="userSpaceOnUse" gradientTransform="translate(309.016 275.447) scale(249.557)">
<stop/>
<stop offset="1" stop-color="white"/>
</radialGradient>
<radialGradient id="paint1_radial" cx="0" cy="0" r="1" gradientUnits="userSpaceOnUse" gradientTransform="translate(286.665 272.963) scale(158.869)">
<stop/>
<stop offset="1" stop-color="white"/>
</radialGradient>
</defs>
</svg>
