<svg width="19" height="17" viewBox="0 0 19 17" fill="none" xmlns="http://www.w3.org/2000/svg">
<g id="Signal">
<path id="Vector" d="M17.7097 17C17.3121 17 16.9898 16.7184 16.9898 16.3709V1.52384C16.9898 1.17636 17.3121 0.89473 17.7097 0.89473C18.1073 0.89473 18.4296 1.17636 18.4296 1.52384V16.3709C18.4296 16.7184 18.1073 17 17.7097 17ZM15.586 16.3709V4.07174C15.586 3.72426 15.2637 3.44263 14.8661 3.44263C14.4684 3.44263 14.1462 3.72426 14.1462 4.07174V16.3709C14.1462 16.7184 14.4684 17 14.8661 17C15.2637 17 15.586 16.7184 15.586 16.3709ZM12.7424 16.3709V6.58819C12.7424 6.2407 12.4201 5.95908 12.0224 5.95908C11.6248 5.95908 11.3025 6.2407 11.3025 6.58819V16.3709C11.3025 16.7184 11.6248 17 12.0224 17C12.4201 17 12.7424 16.7184 12.7424 16.3709ZM9.89872 16.3709V9.10464C9.89872 8.75715 9.57645 8.47553 9.17881 8.47553C8.78118 8.47553 8.45891 8.75715 8.45891 9.10464V16.3709C8.45891 16.7184 8.78118 17 9.17881 17C9.57645 17 9.89872 16.7184 9.89872 16.3709ZM7.05509 16.3709V11.6211C7.05509 11.2736 6.73282 10.992 6.33518 10.992C5.93755 10.992 5.61527 11.2736 5.61527 11.6211V16.3709C5.61527 16.7184 5.93755 17 6.33518 17C6.73282 17 7.05509 16.7184 7.05509 16.3709ZM4.21146 16.3709V13.823C4.21146 13.4755 3.88919 13.1939 3.49155 13.1939C3.09391 13.1939 2.77164 13.4755 2.77164 13.823V16.3709C2.77164 16.7184 3.09391 17 3.49155 17C3.88919 17 4.21146 16.7184 4.21146 16.3709ZM1.43981 16.3709C1.43981 16.0234 1.11754 15.7418 0.719907 15.7418C0.322271 15.7418 0 16.0234 0 16.3709C0 16.7184 0.322271 17 0.719907 17C1.11754 17 1.43981 16.7184 1.43981 16.3709Z" fill="white"/>
</g>
</svg>
