<svg width="282" height="201" viewBox="0 0 282 201" fill="none" xmlns="http://www.w3.org/2000/svg">
<path d="M167.55 55.071C164.401 55.071 162.124 57.3485 162.124 60.4695C162.124 63.6186 164.401 65.8961 167.522 65.8961C170.671 65.8961 172.921 63.6186 172.949 60.4976C172.949 57.3485 170.699 55.071 167.55 55.071Z" fill="#0B315E"/>
<path d="M221.704 55.071C218.555 55.0148 216.193 57.236 216.137 60.3571C216.08 63.5062 218.33 65.868 221.423 65.9242C224.572 65.9805 226.906 63.7592 226.962 60.6382C227.046 57.461 224.825 55.1273 221.704 55.071Z" fill="#0B315E"/>
<path d="M275.661 55.071C272.512 55.0429 270.206 57.3204 270.178 60.4414C270.15 63.5905 272.427 65.8961 275.548 65.9242C278.697 65.9524 280.975 63.703 281.003 60.5539C281.031 57.3766 278.81 55.0991 275.661 55.071Z" fill="#0B315E"/>
<path d="M32.4193 92.9448C35.5684 92.9448 37.8459 90.6954 37.8459 87.5463C37.8459 84.3972 35.5966 82.1197 32.4474 82.1197C29.2983 82.1197 27.0208 84.3972 27.0208 87.5182C26.9927 90.6392 29.2983 92.9167 32.4193 92.9448Z" fill="#0B315E"/>
<path d="M86.3761 92.9448C89.5252 92.973 91.8308 90.7517 91.8871 87.6026C91.9152 84.4254 89.6939 82.1198 86.5729 82.0916C83.4238 82.0635 81.0901 84.2848 81.062 87.4058C81.0057 90.5549 83.2832 92.8886 86.3761 92.9448Z" fill="#0B315E"/>
<path d="M140.445 82.0916C137.324 82.1197 135.047 84.4254 135.075 87.5745C135.103 90.6955 137.437 92.973 140.558 92.9448C143.707 92.9167 145.928 90.6111 145.9 87.462C145.9 84.3129 143.594 82.0635 140.445 82.0916Z" fill="#0B315E"/>
<path d="M194.768 82.0916C191.619 82.0072 189.229 84.2004 189.116 87.2933C189.032 90.4424 191.225 92.8323 194.318 92.9448C197.467 93.0292 199.857 90.836 199.941 87.7431C200.054 84.5378 197.889 82.1759 194.768 82.0916Z" fill="#0B315E"/>
<path d="M248.696 82.0916C245.547 82.0635 243.213 84.3129 243.185 87.4058C243.157 90.5549 245.407 92.8886 248.528 92.9167C251.677 92.9448 253.982 90.6955 254.01 87.5745C254.039 84.4254 251.817 82.1197 248.696 82.0916Z" fill="#0B315E"/>
<path d="M59.468 119.965C62.6171 119.937 64.8665 117.66 64.8384 114.511C64.8384 111.362 62.5609 109.112 59.4118 109.112C56.2626 109.112 54.0133 111.418 54.0133 114.567C54.0414 117.688 56.347 119.965 59.468 119.965Z" fill="#0B315E"/>
<path d="M108.083 114.145C107.914 117.322 110.051 119.769 113.115 119.965C116.265 120.134 118.739 117.997 118.908 114.932C119.076 111.755 116.968 109.309 113.903 109.14C110.697 108.943 108.251 111.08 108.083 114.145Z" fill="#0B315E"/>
<path d="M167.747 109.112C164.598 109.028 162.208 111.193 162.124 114.314C162.039 117.463 164.232 119.853 167.325 119.965C170.474 120.05 172.864 117.857 172.949 114.764C173.033 111.558 170.868 109.196 167.747 109.112Z" fill="#0B315E"/>
<path d="M221.479 109.112C218.358 109.14 216.109 111.474 216.165 114.623C216.193 117.744 218.527 119.994 221.676 119.965C224.797 119.909 227.018 117.604 226.99 114.454C226.934 111.305 224.628 109.084 221.479 109.112Z" fill="#0B315E"/>
<path d="M86.4605 146.986C89.6096 146.986 91.8589 144.737 91.8871 141.587C91.8871 138.438 89.6377 136.161 86.4886 136.161C83.3395 136.161 81.062 138.438 81.062 141.559C81.062 144.68 83.3394 146.986 86.4605 146.986Z" fill="#0B315E"/>
<path d="M140.389 136.133C137.268 136.189 135.019 138.523 135.075 141.672C135.131 144.793 137.465 147.042 140.614 146.986C143.735 146.93 145.956 144.624 145.9 141.447C145.872 138.298 143.566 136.076 140.389 136.133Z" fill="#0B315E"/>
<path d="M194.655 136.133C191.506 136.105 189.172 138.354 189.144 141.447C189.116 144.596 191.365 146.93 194.486 146.958C197.636 146.986 199.941 144.765 199.969 141.616C199.997 138.466 197.776 136.161 194.655 136.133Z" fill="#0B315E"/>
<path d="M113.284 174.006C116.433 174.091 118.823 171.898 118.908 168.805C118.992 165.628 116.827 163.266 113.734 163.181C110.585 163.097 108.195 165.29 108.083 168.383C107.97 171.504 110.191 173.894 113.284 174.006Z" fill="#0B315E"/>
<path d="M167.663 163.153C164.514 163.097 162.152 165.318 162.096 168.439C162.039 171.588 164.289 173.95 167.382 174.007C170.531 174.063 172.864 171.842 172.921 168.721C173.005 165.543 170.784 163.21 167.663 163.153Z" fill="#0B315E"/>
<path d="M140.417 190.174C137.296 190.23 135.047 192.536 135.103 195.685C135.159 198.806 137.493 201.055 140.614 200.999C143.735 200.943 145.956 198.637 145.928 195.488C145.872 192.367 143.566 190.118 140.417 190.174Z" fill="#0B315E"/>
<path d="M59.5524 11.8831C62.6734 11.8269 64.8946 9.52131 64.8665 6.37219C64.8384 3.25118 62.5328 1.0018 59.3555 1.05804C56.2345 1.11427 53.9852 3.41989 54.0414 6.56901C54.0695 9.66189 56.4032 11.9113 59.5524 11.8831Z" fill="#0B315E"/>
<path d="M113.593 1.0299C110.444 1.00178 108.139 3.22303 108.083 6.34403C108.054 9.49315 110.276 11.8269 113.397 11.855C116.546 11.8831 118.851 9.66186 118.908 6.51274C118.936 3.39174 116.714 1.08613 113.593 1.0299Z" fill="#0B315E"/>
<path d="M167.578 1.02989C164.429 1.00178 162.124 3.25115 162.124 6.40027C162.096 9.54939 164.373 11.855 167.494 11.8831C170.643 11.9112 172.921 9.63374 172.949 6.51274C172.949 3.3355 170.728 1.05801 167.578 1.02989Z" fill="#0B315E"/>
<path d="M221.563 1.02988C218.414 1.02988 216.165 3.30737 216.165 6.45648C216.165 9.6056 218.47 11.8831 221.591 11.855C224.741 11.855 226.99 9.57749 226.99 6.40025C226.962 3.27925 224.712 1.02988 221.563 1.02988Z" fill="#0B315E"/>
<path d="M32.3631 38.9037C35.5122 38.9318 37.7897 36.6825 37.8178 33.5333C37.8459 30.3842 35.5966 28.0786 32.4756 28.0505C29.3264 28.0224 27.0208 30.2999 26.9927 33.4209C26.9927 36.5419 29.2702 38.8756 32.3631 38.9037Z" fill="#0B315E"/>
<path d="M86.4042 38.9037C89.5533 38.9318 91.8308 36.6825 91.8589 33.5333C91.8871 30.3842 89.6377 28.0786 86.5167 28.0505C83.3676 28.0224 81.062 30.2999 81.0338 33.4209C81.0338 36.5419 83.3113 38.8756 86.4042 38.9037Z" fill="#0B315E"/>
<path d="M140.727 28.0504C137.577 27.9661 135.187 30.1592 135.075 33.2521C134.991 36.4012 137.184 38.7912 140.277 38.9037C143.426 39.0161 145.816 36.7949 145.9 33.702C146.013 30.4966 143.848 28.1629 140.727 28.0504Z" fill="#0B315E"/>
<path d="M194.571 28.0505C191.422 28.0505 189.144 30.328 189.144 33.449C189.144 36.5981 191.422 38.8756 194.543 38.9037C197.692 38.9037 199.969 36.6543 199.969 33.5052C199.969 30.328 197.72 28.0505 194.571 28.0505Z" fill="#0B315E"/>
<path d="M248.64 28.0505C245.491 28.0224 243.185 30.2999 243.157 33.4209C243.129 36.57 245.407 38.8756 248.528 38.9037C251.677 38.9318 253.954 36.6543 253.982 33.5333C254.01 30.3561 251.789 28.0786 248.64 28.0505Z" fill="#0B315E"/>
<path d="M5.37063 65.9243C8.51975 65.9524 10.7972 63.6749 10.8254 60.5539C10.8535 57.4048 8.6041 55.0992 5.4831 55.0992C2.33398 55.071 0.0283746 57.3485 0.000257501 60.4695C-0.0278596 63.5624 2.24963 65.8961 5.37063 65.9243Z" fill="#0B315E"/>
<path d="M59.2431 65.9243C62.3922 66.0367 64.7821 63.8155 64.8665 60.7226C64.9508 57.5454 62.7858 55.1835 59.6929 55.071C56.5438 54.9867 54.1539 57.1798 54.0414 60.2727C53.9289 63.4218 56.1502 65.8118 59.2431 65.9243Z" fill="#0B315E"/>
<path d="M113.565 55.071C110.416 55.0429 108.083 57.2923 108.054 60.4133C108.026 63.5624 110.276 65.8961 113.397 65.9242C116.546 65.9524 118.851 63.703 118.88 60.582C118.936 57.4048 116.714 55.0991 113.565 55.071Z" fill="#0B315E"/>
</svg>
