<svg width="26" height="17" viewBox="0 0 26 17" fill="none" xmlns="http://www.w3.org/2000/svg">
<g id="Wifi">
<path id="XMLID 362" d="M11.1258 13.2183C10.1819 14.0457 10.1819 15.3879 11.1258 16.2153C12.0702 17.0426 13.6013 17.0426 14.5456 16.2153C15.4895 15.3879 15.4895 14.0457 14.5456 13.2183C13.6013 12.3908 12.0702 12.3908 11.1258 13.2183Z" fill="white"/>
<path id="XMLID 361" d="M12.8358 8.17838C10.8437 8.17838 8.96968 8.85847 7.56184 10.0936C7.00877 10.5782 7.00877 11.3635 7.56184 11.8478C8.11446 12.3323 9.01009 12.3323 9.56316 11.8478C10.4364 11.0813 11.599 10.6594 12.8358 10.6594C14.0726 10.6594 15.2353 11.0813 16.1085 11.8478C16.3853 12.0901 16.7483 12.2111 17.1094 12.2111C17.4724 12.2111 17.8335 12.0901 18.1098 11.8478C18.6629 11.3635 18.6629 10.5782 18.1098 10.0936C16.7019 8.85847 14.8279 8.17838 12.8358 8.17838Z" fill="white"/>
<path id="XMLID 360" d="M12.8358 4.0937C9.59824 4.0937 6.55462 5.19885 4.26579 7.20524C3.71316 7.68978 3.71316 8.47523 4.26579 8.95938C4.81881 9.44392 5.71493 9.44392 6.26706 8.95938C8.02129 7.42138 10.3545 6.57452 12.8358 6.57452C15.316 6.57452 17.6492 7.42138 19.4035 8.95938C19.6798 9.20169 20.0428 9.32283 20.4039 9.32283C20.7669 9.32283 21.1286 9.20169 21.4048 8.95938C21.9574 8.47523 21.9574 7.68978 21.4048 7.20524C19.116 5.19885 16.0734 4.0937 12.8358 4.0937Z" fill="white"/>
<path id="XMLID 359" d="M24.7082 4.31086C21.5374 1.53075 17.3213 0 12.8358 0C8.35025 0 4.13419 1.53075 0.963419 4.31086C0.410794 4.79544 0.410794 5.58088 0.963419 6.06503C1.24018 6.30731 1.60224 6.42836 1.9643 6.42836C2.32637 6.42836 2.68943 6.30731 2.96474 6.06503C5.60096 3.7536 9.10707 2.48086 12.8358 2.48086C16.5646 2.48086 20.0696 3.7536 22.7059 6.06503C23.2585 6.54958 24.1541 6.54914 24.7073 6.06547C25.2598 5.58088 25.2598 4.79544 24.7082 4.31086Z" fill="white"/>
</g>
</svg>
